<svg xmlns="http://www.w3.org/2000/svg" viewBox="0 0 128 128" role="img" aria-label="JATA leaf logo">
  <defs>
    <linearGradient id="leafGreen" x1="18" y1="14" x2="104" y2="114" gradientUnits="userSpaceOnUse">
      <stop offset="0" stop-color="#7bd956"/>
      <stop offset="0.5" stop-color="#37b347"/>
      <stop offset="1" stop-color="#0d7f4a"/>
    </linearGradient>
    <linearGradient id="leafShadow" x1="54" y1="24" x2="88" y2="108" gradientUnits="userSpaceOnUse">
      <stop offset="0" stop-color="#1f8f52"/>
      <stop offset="1" stop-color="#0c5f39"/>
    </linearGradient>
  </defs>
  <rect width="128" height="128" fill="none"/>
  <path d="M28 84c6-29 28-53 56-66 13-6 22-7 31-6-1 10-4 20-10 31-13 27-38 49-68 56-4 1-8 2-12 2 0-6 1-11 3-17z" fill="url(#leafGreen)"/>
  <path d="M82 18c-9 2-19 7-29 15-13 11-23 24-28 40-2 7-4 15-4 24 8-1 15-3 22-7 25-15 42-39 51-71-4-1-8-1-12-1z" fill="url(#leafShadow)" opacity=".72"/>
  <path d="M39 97c19-6 36-18 50-36 10-13 17-26 21-39" fill="none" stroke="#0c6d40" stroke-width="7" stroke-linecap="round" stroke-linejoin="round" opacity=".35"/>
  <path d="M34 79c18-9 32-23 43-43" fill="none" stroke="#f2fff2" stroke-width="5" stroke-linecap="round" stroke-linejoin="round" opacity=".2"/>
</svg>
